<svg xmlns="http://www.w3.org/2000/svg" viewBox="0 0 500 135"><path d="M0,0V135H500V0ZM137.22,60.6l-5.3,12.15H116.39v27.69H100.85V48.62q0-7.63,4-10.94t11.59-3.3H139l-5.29,12.15H120.38a11.33,11.33,0,0,0-2.3.18,2,2,0,0,0-1.22.69,2.83,2.83,0,0,0-.43,1.57c0,.69,0,1.62,0,2.77V60.6Zm41.67,27.69q-.09,1.83-.09,3.39v5.47a24.62,24.62,0,0,1-5.59,2.3,52,52,0,0,1-5.78,1.26c-1.85.28-3.5.47-4.94.56s-2.43.13-3,.13h-.44a27.23,27.23,0,0,1-10.28-1.61A13.53,13.53,0,0,1,143,95.5a14.37,14.37,0,0,1-2.6-6.3,45.63,45.63,0,0,1-.61-7.68V52.7h13.19V81.52a11.08,11.08,0,0,0,1.39,5.69q1.38,2.39,5,2.38c.41,0,1.23,0,2.48-.17a11.45,11.45,0,0,0,3.86-1.13V52.7h13.19Zm18.34-2.13a6.61,6.61,0,0,0,2.17,2,8,8,0,0,0,2.69.91,17.64,17.64,0,0,0,2.48.22,7.06,7.06,0,0,0,2.25-.26v11.54a2.39,2.39,0,0,1-1.12.31c-.47,0-1,0-1.57,0a26,26,0,0,1-9.33-1.52,18.72,18.72,0,0,1-6.51-4,15.74,15.74,0,0,1-3.77-5.77,19.33,19.33,0,0,1-1.22-6.82V34.47h13V52.7h11.54L202,64.42h-5.64V82.73A5.77,5.77,0,0,0,197.23,86.16Zm52.09,2.13c-.06,1.22-.09,2.34-.09,3.39v5.47a24.62,24.62,0,0,1-5.59,2.3,52,52,0,0,1-5.78,1.26c-1.85.28-3.5.47-4.94.56s-2.43.13-2.95.13h-.44a27.23,27.23,0,0,1-10.28-1.61,13.53,13.53,0,0,1-5.86-4.29,14.37,14.37,0,0,1-2.6-6.3,45.63,45.63,0,0,1-.61-7.68V52.7h13.19V81.52a11.08,11.08,0,0,0,1.39,5.69q1.38,2.39,5,2.38c.41,0,1.23,0,2.48-.17a11.45,11.45,0,0,0,3.86-1.13V52.7h13.19ZM280.23,64.5h-7a16.42,16.42,0,0,0-2.61.22,5.69,5.69,0,0,0-2.25.87,4.74,4.74,0,0,0-1.56,1.82,6.88,6.88,0,0,0-.61,3.17v29.86H253.06V70.58a18.28,18.28,0,0,1,1.3-6.86,15.24,15.24,0,0,1,4-5.64,19.57,19.57,0,0,1,6.77-3.86,30.49,30.49,0,0,1,9.63-1.52h11.46Zm21.14,35.94H288.44V52.7h12.93Zm-1.61-55.08a6.68,6.68,0,0,1-4.9,2,6.54,6.54,0,0,1-4.86-2,6.65,6.65,0,0,1-2-4.81,6.78,6.78,0,0,1,2-4.91,6.54,6.54,0,0,1,4.86-2,7,7,0,0,1,6.94,6.95A6.57,6.57,0,0,1,299.76,45.36ZM338.53,94a12.06,12.06,0,0,1-3.78,4,18,18,0,0,1-5.55,2.43,26.69,26.69,0,0,1-6.73.82,26.07,26.07,0,0,1-6.68-.82A16.82,16.82,0,0,1,310.32,98a12.27,12.27,0,0,1-3.73-4.12A11.73,11.73,0,0,1,305.2,88h12.06a4.59,4.59,0,0,0,1.39,3.26,5.1,5.1,0,0,0,3.82,1.43,6.41,6.41,0,0,0,3.52-1,3.84,3.84,0,0,0,1.77-3,5.51,5.51,0,0,0-1.64-4A18.76,18.76,0,0,0,322,81.56q-2.52-1.43-5.43-2.91a34,34,0,0,1-5.42-3.42,18,18,0,0,1-4.17-4.56,11.79,11.79,0,0,1-1.64-6.43,11.42,11.42,0,0,1,1.34-5.64,11.76,11.76,0,0,1,3.69-4,17.2,17.2,0,0,1,5.47-2.44,26.52,26.52,0,0,1,6.68-.82,22.39,22.39,0,0,1,7.33,1.09,14.18,14.18,0,0,1,5.25,3A13.07,13.07,0,0,1,338.22,60a14.21,14.21,0,0,1,1.09,5.56H327.85a7.63,7.63,0,0,0-.26-1.87,5.69,5.69,0,0,0-.87-1.87,4.36,4.36,0,0,0-1.65-1.39,5.87,5.87,0,0,0-2.6-.52,5.33,5.33,0,0,0-3.78,1.26,4.08,4.08,0,0,0-1.34,3.08A4.48,4.48,0,0,0,319,67.72a24.78,24.78,0,0,0,4.17,2.86c1.65.93,3.45,1.9,5.42,2.91a30.1,30.1,0,0,1,5.43,3.56,19.36,19.36,0,0,1,4.16,4.77,12.23,12.23,0,0,1,1.7,6.56A11.23,11.23,0,0,1,338.53,94Zm60.62,6.43H386.22V69.71a11.53,11.53,0,0,0-.91-4.77c-.61-1.33-1.84-2-3.69-2a3.86,3.86,0,0,0-2.35.65,3.75,3.75,0,0,0-1.25,1.7,8.12,8.12,0,0,0-.48,2.43c-.06.92-.09,1.88-.09,2.86v.52a3.82,3.82,0,0,0,0,.57,3.87,3.87,0,0,1,.05.56v28.22h-13V71.1q0-1.65-.09-3.12a7.42,7.42,0,0,0-.6-2.61,4,4,0,0,0-1.65-1.78,6.59,6.59,0,0,0-3.22-.65s-.4.08-1,.22a2.5,2.5,0,0,0-1.47.91v36.38H343.52v-45a24.54,24.54,0,0,1,4.9-2.17c1.65-.52,3.15-.93,4.51-1.22a28.14,28.14,0,0,1,3.56-.56c1-.09,1.72-.13,2.13-.13H359a21.38,21.38,0,0,1,6.51.91A16.49,16.49,0,0,1,370.59,55a14.58,14.58,0,0,1,4.69-2.7,19.14,19.14,0,0,1,6.34-.95,21.45,21.45,0,0,1,8,1.35,13.81,13.81,0,0,1,5.46,3.82,15,15,0,0,1,3.08,5.86,26.88,26.88,0,0,1,1,7.37Z"></path></svg>
